<?xml version="1.0" standalone="no"?>
<!DOCTYPE svg PUBLIC "-//W3C//DTD SVG 20010904//EN"
 "http://www.w3.org/TR/2001/REC-SVG-20010904/DTD/svg10.dtd">
<svg version="1.0" xmlns="http://www.w3.org/2000/svg"
 width="316.000000pt" height="407.000000pt" viewBox="0 0 316.000000 407.000000"
 preserveAspectRatio="xMidYMid meet">

<g transform="translate(0.000000,407.000000) scale(0.100000,-0.100000)"
fill="#000000" stroke="none">
<path d="M2638 3573 l-1 -488 -299 -295 -298 -295 -758 758 -757 757 -263 0
-262 0 0 -1440 0 -1440 255 0 255 0 0 687 0 688 425 -425 425 -425 0 -812 c0
-724 2 -813 16 -827 13 -13 42 -16 159 -16 137 0 145 1 159 22 14 20 16 116
16 838 l0 815 108 108 107 107 355 -355 355 -355 257 0 258 0 0 1440 0 1440
-255 0 -255 0 -2 -487z m502 -953 l0 -1430 -245 0 c-166 0 -245 3 -245 11 0 5
-4 8 -8 5 -5 -3 -485 472 -1068 1055 -582 582 -1062 1059 -1066 1059 -5 0 -8
-488 -8 -1085 l0 -1085 -245 0 -245 0 0 1425 0 1425 245 0 c184 0 245 -3 245
-12 0 -9 3 -9 12 0 10 10 237 -212 1075 -1050 l1063 -1063 0 1088 0 1087 245
0 245 0 0 -1430z m-1527 -552 c-39 -39 -76 -68 -87 -68 -14 0 -193 172 -518
497 l-498 498 0 155 0 155 585 -585 585 -585 -67 -67z m1027 180 l0 -353 -177
177 -178 178 175 175 c96 96 176 175 177 175 2 0 3 -159 3 -352z"/>
</g>
</svg>
